<svg version="1.1" id="Layer_1" xmlns="http://www.w3.org/2000/svg" xmlns:xlink="http://www.w3.org/1999/xlink" x="0px" y="0px"
	 width="100%" viewBox="0 0 500 500" enable-background="new 0 0 500 500" xml:space="preserve">
<path fill="#000000" opacity="1.000000" stroke="none" 
	d="
M305.000000,501.000000 
	C203.333359,501.000000 102.166718,501.000000 1.000054,501.000000 
	C1.000036,334.333405 1.000036,167.666794 1.000018,1.000144 
	C167.666565,1.000096 334.333130,1.000096 500.999756,1.000048 
	C500.999847,167.666519 500.999847,334.333038 500.999939,500.999786 
	C435.833344,501.000000 370.666656,501.000000 305.000000,501.000000 
M405.978790,271.078247 
	C405.928375,260.383423 405.877960,249.688599 405.972412,238.067245 
	C405.982605,191.852081 406.002167,145.636902 405.961060,99.421799 
	C405.959717,97.923645 405.338226,96.426048 405.005524,94.998657 
	C405.005524,94.998657 405.075897,94.994888 404.663544,94.213280 
	C404.171173,94.144531 403.678833,94.015648 403.186462,94.015556 
	C337.266174,94.003197 271.345886,93.995071 205.425613,94.041840 
	C204.336609,94.042618 203.248108,94.717445 202.254272,95.727287 
	C210.493240,103.977234 218.729416,112.229958 226.971725,120.476578 
	C245.025848,138.540115 263.134613,156.549438 281.118408,174.682709 
	C290.883942,184.529434 300.317169,194.706802 310.123352,204.511948 
	C319.946655,214.334167 330.101837,223.823502 340.010651,233.561432 
	C348.957245,242.353729 357.767059,251.285233 366.637970,260.154572 
	C378.118896,271.633545 389.595703,283.116608 401.089233,294.582977 
	C402.278351,295.769318 403.568726,296.854156 405.251801,298.636414 
	C405.443695,289.759369 405.635590,280.882355 405.978790,271.078247 
M322.500061,400.998566 
	C315.240601,400.998566 307.981140,400.998566 300.721680,400.998566 
	C300.726166,401.198273 300.730652,401.398010 300.735107,401.597717 
	C334.678253,401.597717 368.621399,401.597717 402.564545,401.597717 
	C402.563843,401.398010 402.563141,401.198273 402.562439,400.998566 
	C376.208313,400.998566 349.854156,400.998566 322.500061,400.998566 
M168.008316,401.999329 
	C168.812469,401.921661 169.616638,401.844025 170.420792,401.766388 
	C170.414124,401.608551 170.407455,401.450684 170.400787,401.292847 
	C146.525604,401.292847 122.650444,401.292847 98.775269,401.292847 
	C98.774704,401.530121 98.774147,401.767365 98.773582,402.004639 
	C121.551140,402.004639 144.328705,402.004639 168.008316,401.999329 
M98.000000,118.500961 
	C98.000000,112.546761 98.000000,106.592560 98.000000,100.638359 
	C97.774330,100.646545 97.548660,100.654739 97.322990,100.662926 
	C97.322990,119.889496 97.322990,139.116058 97.322990,158.342636 
	C97.548660,158.342606 97.774330,158.342590 98.000000,158.342575 
	C98.000000,145.395248 98.000000,132.447922 98.000000,118.500961 
z"/>
<path fill="#0066FF" opacity="1.000000" stroke="none" 
	d="
M404.812134,297.986084 
	C403.568726,296.854156 402.278351,295.769318 401.089233,294.582977 
	C389.595703,283.116608 378.118896,271.633545 366.637970,260.154572 
	C357.767059,251.285233 348.957245,242.353729 340.010651,233.561432 
	C330.101837,223.823502 319.946655,214.334167 310.123352,204.511948 
	C300.317169,194.706802 290.883942,184.529434 281.118408,174.682709 
	C263.134613,156.549438 245.025848,138.540115 226.971725,120.476578 
	C218.729416,112.229958 210.493240,103.977234 202.663834,95.377335 
	C270.407562,95.016548 337.741730,95.005722 405.075897,94.994888 
	C405.075897,94.994888 405.005524,94.998657 405.001160,95.436737 
	C404.995483,101.692375 404.986053,107.509941 404.994202,113.327499 
	C405.052917,155.218369 405.115234,197.109238 405.102966,239.464203 
	C405.078491,250.618240 405.127441,261.308197 405.121246,272.463928 
	C404.981445,281.281830 404.896790,289.633972 404.812134,297.986084 
z"/>
<path fill="#99C2FF" opacity="1.000000" stroke="none" 
	d="
M404.869720,94.604080 
	C337.741730,95.005722 270.407562,95.016548 202.616379,95.052551 
	C203.248108,94.717445 204.336609,94.042618 205.425613,94.041840 
	C271.345886,93.995071 337.266174,94.003197 403.186462,94.015556 
	C403.678833,94.015648 404.171173,94.144531 404.869720,94.604080 
z"/>
<path fill="#8CC3FF" opacity="1.000000" stroke="none" 
	d="
M405.176392,239.000107 
	C405.115234,197.109238 405.052917,155.218369 404.994202,113.327499 
	C404.986053,107.509941 404.995483,101.692375 405.001282,95.401505 
	C405.338226,96.426048 405.959717,97.923645 405.961060,99.421799 
	C406.002167,145.636902 405.982605,191.852081 405.737183,238.532547 
	C405.501953,238.997849 405.176392,239.000107 405.176392,239.000107 
z"/>
<path fill="#575757" opacity="1.000000" stroke="none" 
	d="
M323.000061,400.998566 
	C349.854156,400.998566 376.208313,400.998566 402.562439,400.998566 
	C402.563141,401.198273 402.563843,401.398010 402.564545,401.597717 
	C368.621399,401.597717 334.678253,401.597717 300.735107,401.597717 
	C300.730652,401.398010 300.726166,401.198273 300.721680,400.998566 
	C307.981140,400.998566 315.240601,400.998566 323.000061,400.998566 
z"/>
<path fill="#909090" opacity="1.000000" stroke="none" 
	d="
M167.557281,402.001984 
	C144.328705,402.004639 121.551140,402.004639 98.773582,402.004639 
	C98.774147,401.767365 98.774704,401.530121 98.775269,401.292847 
	C122.650444,401.292847 146.525604,401.292847 170.400787,401.292847 
	C170.407455,401.450684 170.414124,401.608551 170.420792,401.766388 
	C169.616638,401.844025 168.812469,401.921661 167.557281,402.001984 
z"/>
<path fill="#FFFFFF" opacity="1.000000" stroke="none" 
	d="
M98.000000,119.000778 
	C98.000000,132.447922 98.000000,145.395248 98.000000,158.342575 
	C97.774330,158.342590 97.548660,158.342606 97.322990,158.342636 
	C97.322990,139.116058 97.322990,119.889496 97.322990,100.662926 
	C97.548660,100.654739 97.774330,100.646545 98.000000,100.638359 
	C98.000000,106.592560 98.000000,112.546761 98.000000,119.000778 
z"/>
<path fill="#A1AEFF" opacity="1.000000" stroke="none" 
	d="
M405.102966,239.464203 
	C405.176392,239.000107 405.501953,238.997849 405.664734,238.995819 
	C405.877960,249.688599 405.928375,260.383423 405.740356,271.539734 
	C405.501953,272.001251 405.176392,271.998169 405.176392,271.998169 
	C405.127441,261.308197 405.078491,250.618240 405.102966,239.464203 
z"/>
<path fill="#8CC3FF" opacity="1.000000" stroke="none" 
	d="
M405.121246,272.463928 
	C405.176392,271.998169 405.501953,272.001251 405.664734,272.003296 
	C405.635590,280.882355 405.443695,289.759369 405.031952,298.311249 
	C404.896790,289.633972 404.981445,281.281830 405.121246,272.463928 
z"/>
</svg>